<svg width="712" height="463" viewBox="0 0 712 463" fill="none" xmlns="http://www.w3.org/2000/svg">
<path d="M23.6 97H108.4L122.4 214.6L170.8 97H247.2L260.8 214.6L309.2 97H351.6L272 269H188.4L173.6 181.8L133.2 269H49.6L23.6 97ZM419.622 269H338.422L374.822 97H456.822L419.622 269ZM467.222 44.6C467.222 50.7333 465.889 56.0667 463.222 60.6C460.822 65.1333 457.489 69 453.222 72.2C449.222 75.4 444.555 77.8 439.222 79.4C433.889 81 428.422 81.8 422.822 81.8C412.155 81.8 403.222 79.2667 396.022 74.2C388.822 69.1333 385.222 61.1333 385.222 50.2C385.222 44.3333 386.422 39.1333 388.822 34.6C391.222 29.8 394.422 25.9333 398.422 23C402.689 19.8 407.489 17.4 412.822 15.8C418.422 14.2 424.155 13.4 430.022 13.4C440.422 13.4 449.222 15.9333 456.422 21C463.622 26.0667 467.222 33.9333 467.222 44.6ZM537.209 269H455.609L512.409 0.19998H594.409L537.209 269ZM654.397 269H572.797L629.597 0.19998H711.597L654.397 269Z" fill="black"/>
<path d="M129.8 337.4C130.067 336.067 130.333 334.733 130.6 333.4C130.867 332.067 131 330.6 131 329C131 324.2 130.067 319.8 128.2 315.8C126.6 311.533 123.267 309.4 118.2 309.4C113.667 309.4 109.133 311.4 104.6 315.4C100.067 319.133 97.8 324.2 97.8 330.6C97.8 334.867 98.8667 338.333 101 341C103.4 343.4 106.467 345.4 110.2 347C113.933 348.6 118.067 349.933 122.6 351C127.4 352.067 132.067 353.133 136.6 354.2C143 355.8 149 357.8 154.6 360.2C160.467 362.333 165.667 365.267 170.2 369C174.733 372.733 178.333 377.4 181 383C183.667 388.333 185 395 185 403C185 414.2 182.333 423.667 177 431.4C171.933 438.867 164.733 445 155.4 449.8C146.333 454.333 135.533 457.533 123 459.4C110.733 461.267 97.5333 462.2 83.4 462.2C61.8 462.2 43.9333 460.6 29.8 457.4C15.6667 454.2 5.8 451.133 0.2 448.2L8.6 408.2H62.6C62.3333 409.533 62.2 410.867 62.2 412.2C62.2 413.267 62.2 414.467 62.2 415.8C62.2 421.933 63.5333 426.867 66.2 430.6C69.1333 434.067 74.0667 435.8 81 435.8C88.7333 435.8 94.2 433.667 97.4 429.4C100.867 424.867 102.6 420.733 102.6 417C102.6 413.267 101.133 410.067 98.2 407.4C95.5333 404.467 92.0667 402.067 87.8 400.2C83.5333 398.067 78.7333 396.333 73.4 395C68.3333 393.4 63.4 391.933 58.6 390.6C55.1333 389.8 51.1333 388.467 46.6 386.6C42.3333 384.733 38.2 382.067 34.2 378.6C30.2 375.133 26.8667 370.733 24.2 365.4C21.5333 359.8 20.2 352.867 20.2 344.6C20.2 332.867 23 323.133 28.6 315.4C34.4667 307.4 41.9333 301 51 296.2C60.3333 291.4 70.7333 287.933 82.2 285.8C93.9333 283.667 105.667 282.6 117.4 282.6C132.067 282.6 145.933 283.933 159 286.6C172.067 289.267 182.733 292.733 191 297L181.8 337.4H129.8ZM287.559 378.6C286.493 384.467 285.693 390.067 285.159 395.4C284.893 400.733 284.759 405.533 284.759 409.8C284.759 412.2 284.893 414.867 285.159 417.8C285.426 420.733 285.959 423.533 286.759 426.2C287.826 428.6 289.159 430.733 290.759 432.6C292.626 434.2 295.159 435 298.359 435C300.759 435 303.426 434.2 306.359 432.6C309.559 431 312.626 428.733 315.559 425.8C318.759 422.867 321.693 419.267 324.359 415C327.293 410.733 329.559 405.933 331.159 400.6H396.759L386.359 443.4C381.026 446.867 374.893 449.8 367.959 452.2C361.026 454.6 353.693 456.6 345.959 458.2C338.226 459.533 330.359 460.467 322.359 461C314.359 461.8 306.759 462.2 299.559 462.2C286.226 462.2 273.826 461 262.359 458.6C250.893 456.2 240.893 452.067 232.359 446.2C223.826 440.333 217.026 432.6 211.959 423C207.159 413.133 204.759 401 204.759 386.6C204.759 373.533 206.759 360.733 210.759 348.2C215.026 335.667 221.959 324.6 231.559 315C241.426 305.133 254.493 297.267 270.759 291.4C287.293 285.533 307.826 282.6 332.359 282.6C359.026 282.6 379.026 286.733 392.359 295C405.959 303.267 412.759 316.2 412.759 333.8C412.759 341 411.693 348.867 409.559 357.4C407.426 365.667 404.226 372.733 399.959 378.6H287.559ZM340.759 331C340.759 322.733 339.426 317.133 336.759 314.2C334.093 311.267 330.893 309.8 327.159 309.8C322.893 309.8 318.893 311.267 315.159 314.2C311.693 316.867 308.493 320.6 305.559 325.4C302.626 329.933 299.959 335.267 297.559 341.4C295.159 347.267 293.159 353.533 291.559 360.2H337.159C337.693 357 338.226 353.667 338.759 350.2C339.293 347.267 339.693 344.067 339.959 340.6C340.493 337.133 340.759 333.933 340.759 331ZM496.709 459H415.109L471.909 190.2H553.909L496.709 459ZM613.897 459H532.297L589.097 190.2H671.097L613.897 459Z" fill="black"/>
</svg>
